<svg xmlns="http://www.w3.org/2000/svg" xmlns:xlink="http://www.w3.org/1999/xlink" width="400" height="154" viewBox="0 0 400 154"><defs><path id="a" d="M0 0h400v154H0z"/></defs><clipPath id="b"><use xlink:href="#a" overflow="visible"/></clipPath><path clip-path="url(#b)" fill="#EF3952" d="M800.753 596.344l7.115-10.364a51.499 51.499 0 0 0-25.143-8.66l-.925 12.496c7.04.51 13.508 2.855 18.953 6.528"/><path clip-path="url(#b)" fill="#FCB21C" d="M737.272 555.572l-.455 12.518a51.623 51.623 0 0 0 25.95-5.886l-5.93-11.065a38.961 38.961 0 0 1-19.565 4.432"/><path clip-path="url(#b)" fill="#1A82C5" d="M703.41 509.93l12.544-1.732a50.878 50.878 0 0 0-6.578-18.736l-10.927 6.35a38.142 38.142 0 0 1 4.96 14.12M68.484 82.034L81.03 80.3a50.878 50.878 0 0 0-6.578-18.736l-10.927 6.35a38.148 38.148 0 0 1 4.96 14.12"/><path clip-path="url(#b)" fill="#FCB21C" d="M733.82 511.43l10.145 7.503a50.983 50.983 0 0 0 8.665-17.886l-12.28-3.097a38.272 38.272 0 0 1-6.53 13.48"/><path clip-path="url(#b)" fill="#EF3952" d="M800.283 513.666l25.09-3.467a101.727 101.727 0 0 0-13.157-37.472l-21.853 12.702a76.229 76.229 0 0 1 9.92 28.236"/><path clip-path="url(#b)" fill="#1A82C5" d="M715.954 604.298l3.505 24.813c13.26-1.843 26.163-6.225 37.888-13.01l-12.844-21.613c-8.83 5.134-18.555 8.424-28.55 9.81"/><path clip-path="url(#b)" fill="#0CA84B" d="M810.723 546.868l-5.072-11.478a51.173 51.173 0 0 0-16.468 11.33l9.13 8.69a38.563 38.563 0 0 1 12.41-8.542M223.38 129.327l-5.072-11.478a51.123 51.123 0 0 0-16.47 11.33l9.13 8.688a38.528 38.528 0 0 1 12.412-8.54"/><path clip-path="url(#b)" fill="#1A82C5" d="M730.324 300.562a36.855 36.855 0 0 1 31.81 18.155l10.41-5.92c-8.444-14.405-24.207-24.115-42.22-24.115s-33.778 9.71-42.223 24.115l10.414 5.92a36.851 36.851 0 0 1 31.81-18.155M834.98 383.35l8.49-8.398a48.891 48.891 0 0 0-34.473-14.146v11.88a36.845 36.845 0 0 1 25.983 10.663"/><g clip-path="url(#b)" fill="#1A82C5"><path d="M700.09 372.68a36.848 36.848 0 0 1 25.98 10.663l8.49-8.397c-8.83-8.735-21.024-14.146-34.472-14.146s-25.64 5.41-34.473 14.146l8.49 8.397a36.857 36.857 0 0 1 25.984-10.663m48.768 36.35c0-13.294-5.467-25.35-14.295-34.082l-8.49 8.396c6.653 6.582 10.773 15.668 10.773 25.687 0 10.025-4.124 19.114-10.782 25.697l8.49 8.397c8.832-8.736 14.304-20.794 14.304-34.094"/></g><g clip-path="url(#b)" fill="#FCB21C"><path d="M233.536-25.19c9.562 9.455 14.34 21.877 14.34 34.3h16.018c0-16.482-6.34-32.962-19.026-45.508s-29.35-18.818-46.015-18.817v15.843c12.56-.002 25.12 4.725 34.683 14.18M244.868 54.6c12.68-12.543 19.024-29.017 19.026-45.49h-16.018c-.002 12.415-4.782 24.83-14.34 34.282-9.56 9.456-22.12 14.183-34.682 14.18v15.844c16.664 0 33.328-6.27 46.014-18.817"/></g><g clip-path="url(#b)" fill="#1A82C5"><path d="M784.404 234.422a36.855 36.855 0 0 1-31.81-18.155l-10.41 5.92a48.893 48.893 0 0 0 42.22 24.115 48.897 48.897 0 0 0 42.223-24.115l-10.412-5.92a36.858 36.858 0 0 1-31.81 18.155m148.06 0a36.855 36.855 0 0 1-31.81-18.155l-10.41 5.92c8.444 14.405 24.207 24.115 42.22 24.115s33.778-9.71 42.223-24.115l-10.412-5.92a36.855 36.855 0 0 1-31.81 18.155"/><path d="M858.435 204.037a36.855 36.855 0 0 1 31.81 18.155l10.41-5.92a48.893 48.893 0 0 0-42.22-24.115 48.897 48.897 0 0 0-42.223 24.115l10.412 5.92a36.855 36.855 0 0 1 31.81-18.155m-148.061 0a36.855 36.855 0 0 1 31.81 18.155l10.41-5.92a48.893 48.893 0 0 0-42.22-24.115 48.897 48.897 0 0 0-42.223 24.115l10.412 5.92a36.856 36.856 0 0 1 31.81-18.155"/></g><g clip-path="url(#b)" fill="#EF3952"><path d="M358.466 102.52c-9.467 0-17.75-5.1-22.194-12.668l-7.264 4.13a34.114 34.114 0 0 0 29.458 16.826 34.117 34.117 0 0 0 29.46-16.826l-7.266-4.13a25.71 25.71 0 0 1-22.194 12.667m103.304.001a25.71 25.71 0 0 1-22.193-12.668l-7.264 4.13a34.114 34.114 0 0 0 29.458 16.826 34.115 34.115 0 0 0 29.46-16.826l-7.265-4.13a25.711 25.711 0 0 1-22.194 12.667"/><path d="M410.12 81.318c9.466 0 17.75 5.1 22.193 12.667l7.264-4.13a34.114 34.114 0 0 0-29.458-16.826 34.114 34.114 0 0 0-29.46 16.825l7.265 4.13a25.713 25.713 0 0 1 22.194-12.667m-103.304.001c9.467 0 17.75 5.1 22.194 12.667l7.264-4.13c-5.89-10.05-16.89-16.826-29.458-16.826s-23.567 6.774-29.46 16.825l7.266 4.13a25.713 25.713 0 0 1 22.194-12.667"/></g></svg>