<svg xmlns="http://www.w3.org/2000/svg" xmlns:xlink="http://www.w3.org/1999/xlink" width="440" height="230" viewBox="0 0 440 230"><defs><path id="a" d="M0 0h440v230H0z"/></defs><clipPath id="b"><use xlink:href="#a" overflow="visible"/></clipPath><path clip-path="url(#b)" fill="#FCB21C" d="M270.67 37.072l7.016-10.356a50.327 50.327 0 0 0-24.793-8.653l-.912 12.486a37.92 37.92 0 0 1 18.69 6.522"/><path clip-path="url(#b)" fill="#EF3952" d="M254.577-467.303l-.45 12.51a50.374 50.374 0 0 0 25.59-5.883l-5.848-11.056a38.019 38.019 0 0 1-19.293 4.43"/><path clip-path="url(#b)" fill="#1A82C5" d="M910.9 152.916l12.372-1.732a51.289 51.289 0 0 0-6.487-18.722l-10.775 6.347a38.36 38.36 0 0 1 4.89 14.106m-805.088 10.228l12.37-1.732a51.24 51.24 0 0 0-6.486-18.72l-10.775 6.346c2.56 4.363 4.2 9.17 4.892 14.107"/><path clip-path="url(#b)" fill="#FCB21C" d="M1076.16 45.698l10.002 7.498a51.233 51.233 0 0 0 8.545-17.873l-12.11-3.095a38.417 38.417 0 0 1-6.437 13.47"/><path clip-path="url(#b)" fill="#EF3952" d="M1152.218-252.637l-5-11.47a50.416 50.416 0 0 0-16.24 11.323l9.002 8.683a37.965 37.965 0 0 1 12.238-8.537"/><path clip-path="url(#b)" fill="#0CA84B" d="M841.103-372.69l-5-11.47a50.382 50.382 0 0 0-16.24 11.322l9.002 8.683a37.95 37.95 0 0 1 12.238-8.536"/><path clip-path="url(#b)" fill="#FCB21C" d="M320.33-415.762c0-16.937 9.207-31.76 22.865-39.707l-7.455-12.995c-18.143 10.54-30.372 30.217-30.372 52.703 0 22.487 12.23 42.163 30.372 52.705l7.457-12.998c-13.66-7.947-22.867-22.77-22.867-39.707M0 31.4c30.53 0 57.247 16.67 71.574 41.397L95 59.3C76.003 26.454 40.535 4.314 0 4.314S-76 26.454-95 59.3l23.428 13.5C-57.247 48.07-30.53 31.4 0 31.4"/><path clip-path="url(#b)" fill="#0CA84B" d="M1074.128 265.317c0-56.458 30.69-105.868 76.223-132.364L1125.5 89.63c-60.48 35.136-101.247 100.727-101.247 175.687s40.77 140.55 101.248 175.692l24.857-43.33c-45.537-26.49-76.227-75.9-76.227-132.363"/><g clip-path="url(#b)" fill="#1A82C5"><path d="M140.852-475.424c0 38.08-15.46 72.61-40.422 97.62l31.83 31.9c33.114-33.183 53.626-78.995 53.626-129.52s-20.512-96.335-53.626-129.518l-31.83 31.9c24.96 25.007 40.422 59.536 40.422 97.618"/><path d="M3.06-292.2c50.395 0 96.095-20.54 129.197-53.708l-31.826-31.9C75.48-352.81 41.04-337.332 3.06-337.332c-38 0-72.454-15.494-97.407-40.51l-31.83 31.9C-93.067-312.756-47.357-292.2 3.06-292.2"/></g><g clip-path="url(#b)" fill="#EF3952"><path d="M1076.84-561.754c9.43 9.45 14.142 21.862 14.14 34.274h15.796c0-16.468-6.252-32.936-18.76-45.473s-28.943-18.803-45.375-18.802v15.83c12.386 0 24.77 4.722 34.2 14.17m11.173 79.732c12.505-12.532 18.76-28.994 18.76-45.455h-15.795c-.003 12.406-4.717 24.812-14.14 34.256-9.43 9.45-21.815 14.172-34.2 14.17v15.832c16.432 0 32.865-6.267 45.374-18.803"/></g><g clip-path="url(#b)" fill="#EF3952"><path d="M299.337 163.645c-9.335 0-17.504-5.096-21.885-12.658l-7.163 4.127c5.808 10.043 16.653 16.813 29.047 16.813 12.394 0 23.238-6.77 29.05-16.813l-7.165-4.128c-4.38 7.562-12.55 12.66-21.885 12.66m101.868-.001c-9.335 0-17.504-5.096-21.885-12.658l-7.164 4.127c5.81 10.043 16.654 16.813 29.048 16.813 12.394 0 23.238-6.77 29.05-16.813l-7.165-4.128c-4.382 7.562-12.55 12.66-21.886 12.66"/><path d="M350.27 142.46c9.336 0 17.505 5.096 21.886 12.658l7.163-4.127c-5.81-10.042-16.655-16.812-29.05-16.812-12.393 0-23.237 6.77-29.048 16.813l7.164 4.13c4.38-7.564 12.55-12.66 21.885-12.66m-101.865-.002c9.335 0 17.504 5.096 21.885 12.658l7.163-4.127c-5.81-10.042-16.654-16.812-29.048-16.812-12.394 0-23.238 6.77-29.05 16.813l7.165 4.13c4.38-7.564 12.55-12.66 21.885-12.66"/></g><g clip-path="url(#b)" fill="#1A82C5"><path d="M1177.55-368.53c-9.336 0-17.505-5.097-21.886-12.66l-7.163 4.128c5.81 10.043 16.655 16.813 29.05 16.813s23.238-6.77 29.048-16.812l-7.164-4.128c-4.38 7.563-12.55 12.66-21.885 12.66m101.866-.001c-9.335 0-17.504-5.097-21.885-12.66l-7.162 4.128c5.81 10.043 16.654 16.813 29.048 16.813s23.24-6.77 29.05-16.812l-7.165-4.128c-4.38 7.563-12.55 12.66-21.884 12.66"/><path d="M1228.483-389.716c9.335 0 17.504 5.096 21.885 12.658l7.163-4.127c-5.808-10.043-16.653-16.813-29.047-16.813-12.394 0-23.238 6.77-29.05 16.813l7.165 4.128c4.38-7.562 12.55-12.66 21.885-12.66m-101.867.001c9.335 0 17.504 5.096 21.885 12.658l7.163-4.127c-5.81-10.043-16.654-16.813-29.048-16.813-12.394 0-23.238 6.77-29.05 16.813l7.165 4.128c4.38-7.562 12.55-12.66 21.885-12.66"/></g></svg>