<svg xmlns="http://www.w3.org/2000/svg" xmlns:xlink="http://www.w3.org/1999/xlink" width="410" height="230" viewBox="0 0 410 230"><defs><path id="a" d="M0 0h410v230H0z"/></defs><clipPath id="b"><use xlink:href="#a" overflow="visible"/></clipPath><path clip-path="url(#b)" fill="#FCB21C" d="M-565.253 37.072l7.125-10.356a51.62 51.62 0 0 0-25.178-8.653l-.926 12.486c7.05.508 13.526 2.852 18.98 6.522"/><path clip-path="url(#b)" fill="#EF3952" d="M-581.596-467.303l-.456 12.51c8.754.323 17.7-1.55 25.984-5.883l-5.938-11.056a39.084 39.084 0 0 1-19.59 4.43"/><path clip-path="url(#b)" fill="#1A82C5" d="M84.907 152.916l12.563-1.732a50.757 50.757 0 0 0-6.588-18.722L79.94 138.81a37.993 37.993 0 0 1 4.967 14.106m-766.999 10.227l12.562-1.732a50.764 50.764 0 0 0-6.587-18.72l-10.942 6.346a38.012 38.012 0 0 1 4.968 14.107"/><path clip-path="url(#b)" fill="#FCB21C" d="M252.73 45.698l10.156 7.498a50.924 50.924 0 0 0 8.677-17.873l-12.298-3.095a38.095 38.095 0 0 1-6.536 13.47"/><path clip-path="url(#b)" fill="#EF3952" d="M329.967-252.637l-5.08-11.47a51.244 51.244 0 0 0-16.49 11.323l9.142 8.683a38.52 38.52 0 0 1 12.427-8.537"/><path clip-path="url(#b)" fill="#0CA84B" d="M14.026-372.69l-5.08-11.47a51.21 51.21 0 0 0-16.49 11.322l9.142 8.683a38.573 38.573 0 0 1 12.428-8.536"/><path clip-path="url(#b)" fill="#FCB21C" d="M-514.823-415.762c0-16.937 9.35-31.76 23.22-39.707l-7.57-12.995c-18.425 10.54-30.844 30.217-30.844 52.703 0 22.487 12.42 42.163 30.843 52.705l7.572-12.998c-13.87-7.947-23.22-22.77-23.22-39.707M-840.12 31.4c31.002 0 58.134 16.67 72.683 41.397l23.79-13.497c-19.294-32.846-55.31-54.986-96.473-54.986-41.162 0-77.18 22.14-96.475 54.986l23.792 13.5c14.546-24.73 41.678-41.4 72.683-41.4"/><path clip-path="url(#b)" fill="#0CA84B" d="M250.666 265.317c0-56.458 31.167-105.868 77.405-132.364L302.834 89.63c-61.417 35.136-102.817 100.727-102.817 175.687s41.4 140.55 102.817 175.692l25.242-43.33c-46.243-26.49-77.41-75.9-77.41-132.363"/><g clip-path="url(#b)" fill="#1A82C5"><path d="M-697.085-475.424c0 38.08-15.7 72.61-41.05 97.62l32.325 31.9c33.627-33.183 54.457-78.995 54.457-129.52s-20.83-96.335-54.457-129.518l-32.324 31.9c25.348 25.007 41.05 59.536 41.05 97.618"/><path d="M-837.015-292.2c51.177 0 97.586-20.54 131.202-53.708l-32.32-31.9c-25.337 24.997-60.314 40.476-98.882 40.476-38.588 0-73.576-15.494-98.917-40.51l-32.324 31.9c33.623 33.186 80.044 53.743 131.24 53.743"/></g><g clip-path="url(#b)" fill="#EF3952"><path d="M253.42-561.754c9.574 9.45 14.36 21.862 14.358 34.274h16.04c.002-16.468-6.348-32.936-19.052-45.473s-29.39-18.803-46.078-18.802v15.83c12.58 0 25.157 4.722 34.73 14.17m11.349 79.732c12.7-12.532 19.05-28.994 19.052-45.455h-16.04c-.003 12.406-4.79 24.812-14.36 34.256-9.575 9.45-22.153 14.172-34.73 14.17v15.832c16.686 0 33.373-6.267 46.077-18.803"/></g><g clip-path="url(#b)" fill="#EF3952"><path d="M-495.68 163.645a25.755 25.755 0 0 1-22.224-12.658l-7.274 4.127a34.175 34.175 0 0 0 29.498 16.813c12.586 0 23.6-6.77 29.5-16.813l-7.276-4.128a25.757 25.757 0 0 1-22.224 12.66m103.446-.001a25.755 25.755 0 0 1-22.224-12.658l-7.274 4.127a34.175 34.175 0 0 0 29.498 16.813c12.586 0 23.6-6.77 29.5-16.813l-7.276-4.128a25.757 25.757 0 0 1-22.224 12.66"/><path d="M-443.957 142.46c9.48 0 17.776 5.096 22.224 12.658l7.274-4.127a34.172 34.172 0 0 0-29.497-16.812c-12.586 0-23.6 6.77-29.5 16.813l7.276 4.13a25.75 25.75 0 0 1 22.223-12.66m-103.446-.002c9.48 0 17.776 5.096 22.224 12.658l7.275-4.127a34.176 34.176 0 0 0-29.498-16.812c-12.586 0-23.6 6.77-29.5 16.813l7.276 4.13a25.752 25.752 0 0 1 22.224-12.66"/></g><g clip-path="url(#b)" fill="#1A82C5"><path d="M355.69-368.53a25.753 25.753 0 0 1-22.223-12.66l-7.274 4.128a34.175 34.175 0 0 0 29.498 16.813c12.587 0 23.6-6.77 29.5-16.812l-7.275-4.128a25.755 25.755 0 0 1-22.224 12.66m103.445-.001a25.755 25.755 0 0 1-22.224-12.66l-7.274 4.128a34.173 34.173 0 0 0 29.497 16.813c12.586 0 23.6-6.77 29.5-16.812l-7.276-4.128a25.752 25.752 0 0 1-22.223 12.66"/><path d="M407.414-389.716c9.48 0 17.776 5.096 22.224 12.658l7.274-4.127a34.174 34.174 0 0 0-29.498-16.813c-12.586 0-23.6 6.77-29.5 16.813l7.276 4.128a25.757 25.757 0 0 1 22.224-12.66m-103.446.001c9.48 0 17.776 5.096 22.224 12.658l7.274-4.127a34.175 34.175 0 0 0-29.498-16.813c-12.586 0-23.6 6.77-29.5 16.813l7.276 4.128a25.757 25.757 0 0 1 22.224-12.66"/></g></svg>