<svg xmlns="http://www.w3.org/2000/svg" xmlns:xlink="http://www.w3.org/1999/xlink" width="424" height="262" viewBox="0 0 424 262"><defs><path id="a" d="M0 0h424v262H0z"/></defs><clipPath id="b"><use xlink:href="#a" overflow="visible"/></clipPath><path clip-path="url(#b)" fill="#1A82C5" d="M57.713 131.025l12.42-1.735a51.274 51.274 0 0 0-6.512-18.757l-10.817 6.358a38.449 38.449 0 0 1 4.91 14.135"/><path clip-path="url(#b)" fill="#0CA84B" d="M300.5 49.47l-5.023-11.49a50.58 50.58 0 0 0-16.305 11.342l9.04 8.7a38.128 38.128 0 0 1 12.287-8.553"/><path clip-path="url(#b)" fill="#FCB21C" d="M194.49-22.17c0-56.563 30.813-106.064 76.53-132.61l-24.954-43.403C185.343-162.983 144.41-97.27 144.41-22.17s40.933 140.81 101.657 176.017l24.957-43.41c-45.72-26.54-76.535-76.04-76.535-132.607"/><g clip-path="url(#b)" fill="#1A82C5"><path d="M350.94-35.22c9.468 9.467 14.2 21.902 14.198 34.338h15.86c0-16.5-6.277-32.997-18.837-45.557s-29.058-18.837-45.556-18.836v15.86c12.435-.002 24.87 4.73 34.337 14.196m11.218 79.877c12.555-12.555 18.834-29.047 18.836-45.54h-15.86c0 12.43-4.734 24.86-14.196 34.32-9.467 9.468-21.902 14.2-34.338 14.198v15.86c16.5 0 32.998-6.278 45.558-18.838"/></g><g clip-path="url(#b)" fill="#EF3952"><path d="M392.897 168.36c-9.372 0-17.575-5.105-21.973-12.68l-7.192 4.135c5.833 10.062 16.72 16.844 29.165 16.844 12.444 0 23.332-6.783 29.166-16.845l-7.193-4.135c-4.397 7.576-12.6 12.68-21.973 12.68m102.278.001c-9.372 0-17.575-5.105-21.973-12.68l-7.192 4.135c5.833 10.062 16.72 16.844 29.165 16.844 12.444 0 23.332-6.783 29.166-16.845l-7.192-4.135c-4.398 7.576-12.6 12.68-21.973 12.68"/><path d="M444.037 147.137c9.372 0 17.575 5.106 21.973 12.68l7.192-4.134c-5.833-10.062-16.72-16.844-29.165-16.844-12.444 0-23.332 6.78-29.166 16.843l7.194 4.135c4.397-7.575 12.6-12.68 21.973-12.68m-102.278 0c9.37 0 17.574 5.106 21.972 12.68l7.192-4.134c-5.833-10.062-16.72-16.844-29.165-16.844s-23.333 6.78-29.167 16.843l7.193 4.135c4.398-7.575 12.6-12.68 21.973-12.68"/></g></svg>