<svg xmlns="http://www.w3.org/2000/svg" xmlns:xlink="http://www.w3.org/1999/xlink" width="1236" height="215" viewBox="0 0 1236 215"><defs><path id="a" d="M0 0h1236v215H0z"/></defs><clipPath id="b"><use xlink:href="#a" overflow="visible"/></clipPath><path clip-path="url(#b)" fill="#FCB21C" d="M488.996 176.96l9.642-8.017a50.629 50.629 0 0 0-21.518-15.223l-4.344 11.76a38.228 38.228 0 0 1 16.22 11.48"/><path clip-path="url(#b)" fill="#0CA84B" d="M239.673 103.85l5.022 11.49A50.614 50.614 0 0 0 261 103.997l-9.04-8.7a38.14 38.14 0 0 1-12.287 8.552"/><path clip-path="url(#b)" fill="#EE3049" d="M714.212 146.25l-6.54 10.7a50.608 50.608 0 0 0 18.637 6.865l1.95-12.392a38.177 38.177 0 0 1-14.048-5.173"/><path clip-path="url(#b)" fill="#1A82C5" d="M1022.648 190.423l12.45-1.498a50.628 50.628 0 0 0-6.164-18.882l-10.934 6.15a38.16 38.16 0 0 1 4.648 14.23"/><path clip-path="url(#b)" fill="#FCB21C" d="M295.137 241.218c0-30.652 16.7-57.478 41.473-71.863l-13.522-23.522C290.18 164.91 268 200.52 268 241.218s22.182 76.308 55.088 95.387l13.525-23.524c-24.777-14.38-41.476-41.207-41.476-71.862"/><g clip-path="url(#b)" fill="#0CA84B"><path d="M1068.37 160.668c9.468 9.467 14.2 21.903 14.198 34.338h15.86c0-16.5-6.277-32.998-18.837-45.558-12.56-12.56-29.058-18.84-45.556-18.838v15.86c12.435 0 24.87 4.73 34.337 14.198m11.218 79.879c12.555-12.556 18.834-29.048 18.836-45.54h-15.86c0 12.43-4.734 24.858-14.196 34.32-9.467 9.467-21.902 14.2-34.338 14.197v15.86c16.5 0 32.998-6.277 45.558-18.837"/></g><g clip-path="url(#b)" fill="#1A82C5"><path d="M31.106 64.155c33.885 0 64.61 13.787 86.862 36.047l28.384-28.385c-29.526-29.53-70.29-47.82-115.246-47.82-44.957 0-85.72 18.29-115.246 47.82l28.384 28.385c22.252-22.26 52.977-36.047 86.862-36.047"/><path d="M194.14 187.033c0-44.94-18.277-85.695-47.79-115.214l-28.384 28.38c22.242 22.25 36.016 52.964 36.016 86.833 0 33.886-13.787 64.61-36.046 86.863l28.384 28.385c29.53-29.525 47.82-70.29 47.82-115.247"/></g><g clip-path="url(#b)" fill="#EF3952"><path d="M1204.547 127.534c-9.372 0-17.575-5.106-21.973-12.68l-7.192 4.134c5.833 10.062 16.722 16.844 29.165 16.844s23.332-6.783 29.166-16.844l-7.193-4.135c-4.397 7.575-12.6 12.68-21.973 12.68m102.278.001c-9.372 0-17.575-5.106-21.973-12.68l-7.192 4.134c5.833 10.062 16.72 16.844 29.165 16.844 12.444 0 23.332-6.783 29.166-16.844l-7.192-4.135c-4.398 7.575-12.6 12.68-21.973 12.68"/><path d="M1255.686 106.31c9.372 0 17.575 5.106 21.973 12.68l7.19-4.134c-5.832-10.062-16.72-16.844-29.164-16.844s-23.332 6.783-29.166 16.844l7.193 4.135c4.398-7.574 12.6-12.68 21.973-12.68m-102.275-.001c9.37 0 17.574 5.106 21.972 12.68l7.192-4.134c-5.833-10.062-16.722-16.844-29.165-16.844s-23.333 6.783-29.167 16.844l7.193 4.135c4.397-7.574 12.6-12.68 21.973-12.68"/></g></svg>