<svg xmlns="http://www.w3.org/2000/svg" xmlns:xlink="http://www.w3.org/1999/xlink" width="1154" height="1676" viewBox="0 0 1154 1676"><defs><path id="a" d="M0 0h1154v1676H0z"/></defs><clipPath id="b"><use xlink:href="#a" overflow="visible"/></clipPath><path clip-path="url(#b)" fill="#1A82C5" d="M139.745 627.432l12.42-1.735a51.274 51.274 0 0 0-6.512-18.757l-10.818 6.358a38.438 38.438 0 0 1 4.91 14.134"/><path clip-path="url(#b)" fill="#0CA84B" d="M72 672.098l5.597 11.223a51.295 51.295 0 0 0 15.71-12.142l-9.47-8.233A38.449 38.449 0 0 1 72 672.099m995.774 922.369l5.597 11.223a51.283 51.283 0 0 0 15.71-12.142l-9.47-8.233a38.437 38.437 0 0 1-11.836 9.153"/><path clip-path="url(#b)" fill="#EF3952" d="M200.708 1601.664l-11.798 4.254a51.287 51.287 0 0 0 10.234 17.015l9.278-8.45a38.416 38.416 0 0 1-7.714-12.82"/><path clip-path="url(#b)" fill="#FCB21C" d="M66.96 1296.07l5.788 11.125a51.25 51.25 0 0 0 15.5-12.408l-9.608-8.07a38.42 38.42 0 0 1-11.68 9.352"/><path clip-path="url(#b)" fill="#EF3952" d="M1114.628 828.415l-7.865-9.768a51.308 51.308 0 0 0-12.753 15.218l11.01 6.02a38.442 38.442 0 0 1 9.608-11.47"/><path clip-path="url(#b)" fill="#1A82C5" d="M1041.44 1368.177l9.378-8.328a51.28 51.28 0 0 0-15.817-12.004l-5.48 11.288a38.438 38.438 0 0 1 11.92 9.043"/><path clip-path="url(#b)" fill="#0CA84B" d="M77.18 65.47l-5.023-11.49a50.58 50.58 0 0 0-16.305 11.342l9.04 8.7a38.128 38.128 0 0 1 12.287-8.553"/><path clip-path="url(#b)" fill="#FCB21C" d="M-2 317.13c37.925 0 71.115 20.662 88.913 51.313l29.102-16.73C92.413 310.997 48.353 283.552-2 283.552S-96.41 311-120.015 351.714l29.105 16.732C-73.117 337.79-39.927 317.13-2 317.13m1012.885 1402.426c0 37.925-20.66 71.114-51.312 88.912l16.73 29.102c40.715-23.602 68.16-67.66 68.16-118.014 0-50.352-27.445-94.412-68.16-118.017l-16.732 29.104c30.654 17.794 51.315 50.984 51.315 88.912"/><path clip-path="url(#b)" fill="#0CA84B" d="M1188.983 1128.87c-37.924 0-71.114-20.662-88.912-51.313l-29.1 16.73c23.6 40.715 67.66 68.16 118.013 68.16 50.352 0 94.412-27.445 118.017-68.16l-29.105-16.732c-17.795 30.654-50.984 51.314-88.912 51.314"/><g clip-path="url(#b)" fill="#1A82C5"><path d="M1089 669.17c9.467 9.468 14.2 21.903 14.197 34.34h15.86c0-16.5-6.277-32.998-18.837-45.558-12.56-12.56-29.06-18.838-45.557-18.837v15.86c12.435-.003 24.87 4.73 34.337 14.196m11.22 79.879c12.555-12.556 18.834-29.048 18.836-45.54h-15.86c0 12.43-4.734 24.858-14.196 34.32-9.467 9.467-21.902 14.2-34.338 14.197v15.86c16.5 0 32.997-6.278 45.558-18.838"/></g><g clip-path="url(#b)" fill="#1A82C5"><path d="M88.046 1506.352c-17.466 17.466-40.41 26.196-63.352 26.193v29.26c30.44.003 60.88-11.58 84.052-34.753S143.5 1473.44 143.5 1443h-29.26c.002 22.943-8.728 45.886-26.194 63.352m-147.372 20.7c23.164 23.164 53.59 34.75 84.02 34.752v-29.26c-22.932-.003-45.863-8.735-63.32-26.192-17.466-17.466-26.196-40.41-26.193-63.352h-29.26c0 30.44 11.582 60.88 34.754 84.052"/></g><g clip-path="url(#b)" fill="#EF3952"><path d="M-16.29 978.3c-9.37 0-17.574-5.105-21.972-12.68l-7.192 4.135c5.833 10.062 16.72 16.844 29.165 16.844s23.333-6.783 29.167-16.845l-7.193-4.135c-4.398 7.575-12.6 12.68-21.973 12.68m102.276.001c-9.372 0-17.575-5.105-21.973-12.68l-7.192 4.135c5.833 10.062 16.72 16.844 29.165 16.844 12.444 0 23.332-6.783 29.166-16.845l-7.193-4.135c-4.396 7.575-12.6 12.68-21.972 12.68"/><path d="M34.85 957.077c9.372 0 17.575 5.106 21.973 12.68l7.192-4.134c-5.833-10.062-16.72-16.844-29.165-16.844-12.444 0-23.332 6.78-29.166 16.843l7.193 4.135c4.398-7.575 12.6-12.68 21.973-12.68m-102.277 0c9.372 0 17.575 5.106 21.973 12.68l7.192-4.134c-5.833-10.062-16.72-16.844-29.165-16.844-12.444 0-23.332 6.78-29.166 16.843l7.193 4.135c4.397-7.575 12.6-12.68 21.973-12.68"/></g></svg>