<svg xmlns="http://www.w3.org/2000/svg" xmlns:xlink="http://www.w3.org/1999/xlink" width="400" height="270" viewBox="0 0 400 270"><defs><path id="a" d="M0 0h400v270H0z"/></defs><clipPath id="b"><use xlink:href="#a" overflow="visible"/></clipPath><path clip-path="url(#b)" fill="#FCB21C" d="M-551.466 578.945l6.95-10.452c-7.06-4.91-15.44-8.056-24.563-8.733l-.903 12.602a37.141 37.141 0 0 1 18.517 6.583"/><path clip-path="url(#b)" fill="#EF3952" d="M-567.41 69.917l-.446 12.624c8.54.328 17.27-1.56 25.35-5.935l-5.792-11.158a37.072 37.072 0 0 1-19.113 4.47"/><path clip-path="url(#b)" fill="#1A82C5" d="M82.836 695.858l12.256-1.748a52.374 52.374 0 0 0-6.427-18.895L77.99 681.62a39.266 39.266 0 0 1 4.846 14.238m-748.291 10.322l12.256-1.75a52.373 52.373 0 0 0-6.426-18.894l-10.675 6.405a39.274 39.274 0 0 1 4.845 14.24"/><path clip-path="url(#b)" fill="#FCB21C" d="M246.565 587.65l9.91 7.567a52.124 52.124 0 0 0 8.466-18.038l-11.997-3.124a39.072 39.072 0 0 1-6.378 13.594"/><path clip-path="url(#b)" fill="#EF3952" d="M321.92 256.34l-4.956-11.576c-5.88 2.61-11.367 6.42-16.09 11.426l8.92 8.763a37.657 37.657 0 0 1 12.125-8.614"/><path clip-path="url(#b)" fill="#0CA84B" d="M33.42 165.402l-4.954-11.575c-5.88 2.61-11.367 6.42-16.09 11.426l8.92 8.763a37.622 37.622 0 0 1 12.125-8.614"/><path clip-path="url(#b)" fill="#FCB21C" d="M-502.266 121.934c0-17.093 9.12-32.052 22.654-40.073l-7.386-13.115c-17.975 10.638-30.09 30.495-30.09 53.19s12.115 42.55 30.09 53.19l7.388-13.118c-13.535-8.02-22.656-22.98-22.656-40.073M-819.63 573.22c30.247 0 56.717 16.823 70.91 41.78l23.21-13.623c-18.823-33.15-53.96-55.494-94.12-55.494s-75.296 22.345-94.12 55.494L-890.54 615c14.192-24.957 40.662-41.78 70.91-41.78"/><path clip-path="url(#b)" fill="#0CA84B" d="M244.552 809.295c0-56.98 30.406-106.845 75.517-133.585l-24.623-43.724c-59.92 35.46-100.31 101.657-100.31 177.31s40.39 141.847 100.31 177.312l24.627-43.728c-45.116-26.736-75.522-76.602-75.522-133.585"/><g clip-path="url(#b)" fill="#1A82C5"><path d="M-680.083 61.72c0 38.434-15.318 73.282-40.048 98.52l31.534 32.194c32.807-33.488 53.13-79.722 53.13-130.713 0-50.99-20.323-97.224-53.13-130.712l-31.535 32.194c24.73 25.238 40.047 60.086 40.047 98.52"/><path d="M-816.6 246.637c49.93 0 95.206-20.73 128.002-54.204l-31.532-32.194c-24.72 25.226-58.843 40.848-96.47 40.848-37.647 0-71.782-15.637-96.504-40.884l-31.535 32.194c32.803 33.492 78.092 54.24 128.04 54.24"/></g><g clip-path="url(#b)" fill="#EF3952"><path d="M247.238-25.404c9.34 9.536 14.01 22.063 14.01 34.59h15.65c0-16.62-6.195-33.24-18.59-45.892-12.393-12.653-28.673-18.977-44.953-18.976v15.977c12.27-.003 24.542 4.764 33.883 14.3"/><path d="M258.31 55.06c12.388-12.647 18.584-29.26 18.586-45.874h-15.65c0 12.52-4.67 25.04-14.008 34.572-9.34 9.536-21.612 14.303-33.883 14.3v15.978c16.28.002 32.56-6.322 44.954-18.975"/></g><g clip-path="url(#b)" fill="#EF3952"><path d="M-483.59 706.685c-9.25 0-17.343-5.143-21.683-12.774l-7.097 4.166c5.756 10.136 16.5 16.968 28.78 16.968 12.278 0 23.022-6.832 28.78-16.968l-7.098-4.166c-4.34 7.63-12.434 12.775-21.683 12.775m100.923-.001c-9.248 0-17.342-5.143-21.682-12.774l-7.097 4.166c5.756 10.136 16.5 16.968 28.78 16.968 12.278 0 23.022-6.832 28.78-16.968l-7.098-4.166c-4.34 7.63-12.434 12.775-21.683 12.775"/><path d="M-433.13 685.305c9.25 0 17.343 5.143 21.683 12.774l7.097-4.166c-5.756-10.136-16.5-16.968-28.78-16.968-12.278 0-23.022 6.832-28.78 16.968l7.098 4.166c4.34-7.632 12.434-12.775 21.683-12.775m-100.923.001c9.248 0 17.342 5.143 21.682 12.774l7.097-4.166c-5.756-10.136-16.5-16.968-28.78-16.968s-23.022 6.832-28.78 16.968l7.098 4.166c4.34-7.632 12.434-12.775 21.683-12.775"/></g><g clip-path="url(#b)" fill="#1A82C5"><path d="M347.016 169.6c-9.248 0-17.342-5.142-21.682-12.773l-7.097 4.165c5.756 10.136 16.5 16.968 28.78 16.968 12.278 0 23.022-6.832 28.78-16.968l-7.098-4.166c-4.342 7.63-12.435 12.775-21.684 12.775m100.925-.001c-9.25 0-17.343-5.142-21.683-12.773l-7.097 4.165c5.756 10.136 16.5 16.968 28.78 16.968 12.278 0 23.022-6.832 28.78-16.968l-7.098-4.166c-4.34 7.63-12.435 12.775-21.683 12.775"/><path d="M397.477 148.22c9.248 0 17.342 5.144 21.682 12.774l7.096-4.165c-5.756-10.137-16.5-16.97-28.78-16.97-12.278 0-23.022 6.833-28.78 16.97l7.098 4.165c4.34-7.63 12.434-12.775 21.683-12.775m-100.921.001c9.248 0 17.342 5.144 21.682 12.774l7.097-4.165c-5.756-10.137-16.5-16.97-28.78-16.97-12.278 0-23.022 6.833-28.78 16.97l7.098 4.165c4.34-7.63 12.434-12.775 21.683-12.775"/></g></svg>
