<svg xmlns="http://www.w3.org/2000/svg" viewBox="0 0 1156 390"><path fill="#FFB217" d="M1103.8 77l-.1 12.5c6.5.1 13.1-1.1 19.5-3.7l-4.7-11.6c-4.8 2-9.8 2.9-14.7 2.8"/><path fill="#00A849" d="M-122.1 185.1c83.7 0 156.9-45.6 196.2-113.3L25.7 44C-3.9 95-59 129.3-122.1 129.3"/><path fill="none" d="M0-1h114v209H0z"/><path fill="#FFB217" d="M1104.9 328.7c-9.4 0-17.6-5.1-22-12.7l-7.2 4.1c5.8 10.1 16.7 16.8 29.2 16.8s23.3-6.8 29.2-16.8l-7.2-4.1c-4.5 7.6-12.7 12.7-22 12.7"/><path fill="#FFB217" d="M1156 299.2c-12.4 0-23.3 6.8-29.2 16.8l7.2 4.1c4.4-7.6 12.6-12.7 22-12.7M1053.7 307.5c9.4 0 17.6 5.1 22 12.7l7.2-4.1c-5.8-10.1-16.7-16.8-29.2-16.8s-23.3 6.8-29.2 16.8l7.2 4.1c4.4-7.6 12.6-12.7 22-12.7"/><path fill="none" d="M1156 390H992V149h164"/><path fill="#00A449" d="M741.5 358.9c7.2 6.9 12.7 15 16.4 23.6l22.1-9.7c-5-11.5-12.3-22.2-21.8-31.4l-16.7 17.5z"/><path fill="#0082CC" d="M967.3 77.4c-1.8-12.6-6-24.9-12.5-36.1L934 53.6c4.9 8.4 8.1 17.7 9.4 27.2l23.9-3.4z"/><path fill="#FF304E" d="M898.1 181.9l-17-17.1c-7.1 7.1-15.2 12.4-24 16l9.2 22.3c11.6-4.7 22.5-11.8 31.8-21.2z"/><path fill="#FFAF18" d="M261.4 31.8c-16.1 4.3-31.3 12.7-43.9 25.3l17.1 17.1c9.5-9.5 21-15.9 33.1-19.1 13-3.5 26.1-3.2 38.2 0l6.2-23.3c-16.1-4.3-33.5-4.6-50.7 0z"/><path fill="#FF304E" d="M355.4 317.6L342 337.7c11.2 7.4 19.6 17.4 25.2 28.7l21.6-10.7c-7.3-14.9-18.6-28.2-33.4-38.1z"/><path fill="#0082CC" d="M121 272l1.6 24.1c13.4-.9 26.2 1.9 37.4 7.4l10.7-21.6c-15-7.4-32-11.1-49.7-9.9z"/></svg>