<svg xmlns="http://www.w3.org/2000/svg" xmlns:xlink="http://www.w3.org/1999/xlink" width="440" height="270" viewBox="0 0 440 270"><defs><path id="a" d="M0 0h440v270H0z"/></defs><clipPath id="b"><use xlink:href="#a" overflow="visible"/></clipPath><path clip-path="url(#b)" fill="#FCB21C" d="M270.67 572.65l7.016-10.337a50.381 50.381 0 0 0-24.793-8.638l-.912 12.464a37.966 37.966 0 0 1 18.69 6.51"/><path clip-path="url(#b)" fill="#EF3952" d="M254.577 69.157l-.45 12.487a50.414 50.414 0 0 0 25.59-5.872l-5.848-11.037a38.051 38.051 0 0 1-19.293 4.422"/><path clip-path="url(#b)" fill="#1A82C5" d="M910.9 688.293l12.372-1.73a51.138 51.138 0 0 0-6.487-18.688l-10.775 6.335a38.263 38.263 0 0 1 4.89 14.083m-755.284 10.209l12.37-1.73a51.1 51.1 0 0 0-6.486-18.688l-10.775 6.335a38.252 38.252 0 0 1 4.89 14.082"/><path clip-path="url(#b)" fill="#FCB21C" d="M1076.16 581.26l10.002 7.486a51.122 51.122 0 0 0 8.545-17.842l-12.11-3.09a38.31 38.31 0 0 1-6.437 13.447"/><path clip-path="url(#b)" fill="#EF3952" d="M1152.218 283.448l-5-11.45a50.415 50.415 0 0 0-16.24 11.303l9.002 8.67a37.995 37.995 0 0 1 12.238-8.522"/><path clip-path="url(#b)" fill="#0CA84B" d="M841.103 163.604l-5-11.45a50.415 50.415 0 0 0-16.24 11.303l9.002 8.668a37.977 37.977 0 0 1 12.238-8.52"/><path clip-path="url(#b)" fill="#FCB21C" d="M320.33 120.608c0-16.907 9.207-31.703 22.865-39.637l-7.455-12.973c-18.143 10.522-30.372 30.164-30.372 52.61s12.23 42.09 30.372 52.613l7.457-12.975c-13.66-7.932-22.867-22.73-22.867-39.637M0 566.99c30.53 0 57.247 16.64 71.574 41.324L95 594.84c-18.998-32.788-54.466-54.89-95-54.89s-76 22.102-95 54.89l23.428 13.476C-57.247 583.628-30.53 566.99 0 566.99"/><path clip-path="url(#b)" fill="#0CA84B" d="M1074.128 800.497c0-56.36 30.69-105.683 76.223-132.133l-24.852-43.248c-60.48 35.075-101.247 100.552-101.247 175.38s40.77 140.307 101.248 175.386l24.857-43.253c-45.537-26.446-76.227-75.77-76.227-132.133"/><g clip-path="url(#b)" fill="#1A82C5"><path d="M140.852 61.05c0 38.015-15.46 72.484-40.422 97.448l31.83 31.844c33.114-33.124 53.626-78.856 53.626-129.292 0-50.436-20.512-96.168-53.626-129.292l-31.83 31.844c24.96 24.964 40.422 59.433 40.422 97.448"/><path d="M3.06 243.955c50.395 0 96.095-20.506 129.197-53.615l-31.826-31.844C75.48 183.45 41.04 198.9 3.06 198.9c-38 0-72.454-15.466-97.407-40.438l-31.83 31.844c33.11 33.13 78.82 53.65 129.236 53.65"/></g><g clip-path="url(#b)" fill="#EF3952"><path d="M1076.84-25.128c9.43 9.433 14.142 21.824 14.14 34.215h15.796c0-16.44-6.252-32.88-18.762-45.394-12.51-12.515-28.942-18.77-45.374-18.77v15.803c12.386-.002 24.77 4.713 34.2 14.146m11.174 79.591c12.505-12.51 18.76-28.943 18.76-45.376h-15.794c-.002 12.384-4.716 24.77-14.14 34.197-9.43 9.433-21.814 14.148-34.2 14.146v15.803c16.432 0 32.865-6.255 45.374-18.77"/></g><g clip-path="url(#b)" fill="#EF3952"><path d="M339.18 699.002c-9.334 0-17.503-5.088-21.884-12.635l-7.163 4.12c5.81 10.026 16.654 16.784 29.048 16.784 12.395 0 23.24-6.757 29.05-16.783l-7.164-4.12c-4.38 7.548-12.55 12.635-21.885 12.635m101.865-.001c-9.335 0-17.504-5.088-21.885-12.635l-7.163 4.12c5.808 10.026 16.653 16.784 29.047 16.784 12.394 0 23.238-6.757 29.05-16.783l-7.165-4.12c-4.38 7.548-12.55 12.635-21.885 12.635"/><path d="M390.114 677.854c9.335 0 17.504 5.088 21.885 12.635l7.162-4.12c-5.81-10.027-16.654-16.785-29.048-16.785-12.394 0-23.238 6.758-29.05 16.784l7.165 4.12c4.38-7.548 12.55-12.636 21.884-12.636m-101.864.002c9.335 0 17.504 5.088 21.885 12.635l7.163-4.12c-5.81-10.027-16.654-16.785-29.048-16.785-12.394 0-23.238 6.758-29.05 16.784l7.165 4.12c4.38-7.548 12.55-12.636 21.885-12.636"/></g><g clip-path="url(#b)" fill="#1A82C5"><path d="M1177.55 167.757c-9.335 0-17.504-5.088-21.885-12.635l-7.163 4.12c5.81 10.026 16.654 16.784 29.048 16.784 12.394 0 23.238-6.758 29.048-16.784l-7.164-4.12c-4.38 7.547-12.55 12.635-21.884 12.635m101.866 0c-9.335 0-17.504-5.088-21.885-12.635l-7.162 4.12c5.81 10.026 16.654 16.784 29.048 16.784 12.394 0 23.238-6.758 29.05-16.784l-7.165-4.12c-4.38 7.547-12.55 12.635-21.884 12.635"/><path d="M1228.483 146.61c9.335 0 17.504 5.087 21.885 12.634l7.163-4.12c-5.808-10.026-16.653-16.784-29.047-16.784-12.394 0-23.24 6.758-29.05 16.784l7.165 4.12c4.38-7.547 12.55-12.635 21.885-12.635m-101.867.001c9.335 0 17.504 5.087 21.885 12.634l7.163-4.12c-5.81-10.026-16.654-16.784-29.048-16.784-12.394 0-23.24 6.758-29.05 16.784l7.165 4.12c4.38-7.547 12.55-12.635 21.885-12.635"/></g></svg>